<svg id="Layer_1" data-name="Layer 1" xmlns="http://www.w3.org/2000/svg" viewBox="0 0 512 512"><defs><style>.cls-1{fill:#ea8d28;}.cls-2{fill:#ffa840;}.cls-3{fill:#c15d25;}</style></defs><title>coins-2-flat</title><path class="cls-1" d="M345.6,64c-82.69,0-166.4,22-166.4,64V359l5.21,3.84c28.45,21,90.22,34,161.19,34s132.74-13,161.19-34L512,359V128C512,86,428.29,64,345.6,64ZM486.4,294.2C454.89,310.21,402,320,345.6,320s-109.29-9.79-140.8-25.8V271.13c35.43,14.74,86.11,23.27,140.8,23.27S451,285.87,486.4,271.13Zm0-51.2c-31.51,16-84.43,25.8-140.8,25.8S236.31,259,204.8,243V219.93c35.43,14.74,86.11,23.27,140.8,23.27S451,234.67,486.4,219.93Zm0-51.2c-31.51,16-84.43,25.8-140.8,25.8s-109.29-9.79-140.8-25.8v-28C235.89,182.4,291,192,345.6,192s109.71-9.6,140.8-28.23ZM345.6,371.2c-67.91,0-118-12.37-140.8-25.61V322.33c35.43,14.74,86.11,23.27,140.8,23.27S451,337.07,486.4,322.33v23.26C463.63,358.83,413.51,371.2,345.6,371.2Z"/><path class="cls-2" d="M204.8,243c31.51,16,84.43,25.8,140.8,25.8S454.89,259,486.4,243V219.93C451,234.67,400.29,243.2,345.6,243.2s-105.36-8.53-140.8-23.27Z"/><path class="cls-2" d="M486.4,191.8v-28C455.31,182.4,400.24,192,345.6,192s-109.71-9.6-140.8-28.23v28c31.51,16,84.43,25.8,140.8,25.8S454.89,207.81,486.4,191.8Z"/><path class="cls-2" d="M204.8,345.59c22.77,13.24,72.89,25.61,140.8,25.61s118-12.37,140.8-25.61V322.33C451,337.07,400.29,345.6,345.6,345.6s-105.36-8.53-140.8-23.27Z"/><path class="cls-2" d="M204.8,294.2c31.51,16,84.43,25.8,140.8,25.8s109.29-9.79,140.8-25.8V271.13C451,285.87,400.29,294.4,345.6,294.4s-105.36-8.53-140.8-23.27Z"/><circle class="cls-2" cx="166.4" cy="281.6" r="166.4"/><path class="cls-3" d="M173.68,204.8c5.22,0,6.9,1.68,6.9,6.71v7.65c15.1,2.61,25.73,10.62,32.06,24.23,2.8,5.22,1.49,8-4.29,10.44l-12.86,5.78c-5,2.24-7.46,1.49-10.26-3.73-3.73-7.27-8.57-10.81-18.82-10.81-13.23,0-18.83,2.8-18.83,10.81,0,6.9,7.83,9.51,22.18,11A130,130,0,0,1,191,270.41a36.41,36.41,0,0,1,10.07,4.29c8.39,5,16.4,14.72,15.66,30.76,0,19.95-13.05,33.74-36.17,38v8c0,5.22-1.68,6.9-6.9,6.9H159.51c-5,0-6.9-1.68-6.9-6.9v-7.64c-18.27-2.8-30.2-11.93-36-27.22q-2.52-7.27,5-10.06l12.68-4.48c5.41-2,8-.93,10.44,4.48,3,7.64,9.88,11.37,20.51,11.37,14.17,0,21.25-3.92,21.25-11.94,0-7.45-7.27-9.88-22-11.37-10.44-1.31-15.85-1.87-25.36-5.59a32.36,32.36,0,0,1-11.55-6.53C121.86,277.5,117,268,117,255.88c0-19.58,12.49-33,35.61-36.72v-7.65c0-5,1.86-6.71,6.9-6.71Z"/></svg>